<?xml version="1.0" encoding="UTF-8"?>
<svg xmlns="http://www.w3.org/2000/svg" xmlns:xlink="http://www.w3.org/1999/xlink" width="260.706" height="123.851" viewBox="0 0 260.706 123.851">
<path fill-rule="nonzero" fill="rgb(84.999084%, 84.999084%, 84.999084%)" fill-opacity="0.75" stroke-width="0.3985" stroke-linecap="butt" stroke-linejoin="miter" stroke="rgb(0%, 0%, 0%)" stroke-opacity="0.75" stroke-miterlimit="10" d="M -0.00184375 5.328375 L 124.388781 -34.3435 L 240.384875 8.199469 L 115.998156 47.871344 Z M -0.00184375 5.328375 " transform="matrix(1, 0, 0, -1, 10.162, 79.344)"/>
<path fill-rule="nonzero" fill="rgb(84.999084%, 84.999084%, 84.999084%)" fill-opacity="0.75" stroke-width="0.3985" stroke-linecap="butt" stroke-linejoin="miter" stroke="rgb(0%, 0%, 0%)" stroke-opacity="0.75" stroke-miterlimit="10" d="M -0.00184375 10.6565 L 124.388781 -29.019281 L 240.384875 13.527594 L 115.998156 53.199469 Z M -0.00184375 10.6565 " transform="matrix(1, 0, 0, -1, 10.162, 79.344)"/>
<path fill-rule="nonzero" fill="rgb(84.999084%, 84.999084%, 84.999084%)" fill-opacity="0.75" stroke-width="0.3985" stroke-linecap="butt" stroke-linejoin="miter" stroke="rgb(0%, 0%, 0%)" stroke-opacity="0.75" stroke-miterlimit="10" d="M -0.00184375 15.984625 L 124.388781 -23.691156 L 240.384875 18.851812 L 115.998156 58.527594 Z M -0.00184375 15.984625 " transform="matrix(1, 0, 0, -1, 10.162, 79.344)"/>
<path fill-rule="nonzero" fill="rgb(84.999084%, 84.999084%, 84.999084%)" fill-opacity="0.75" stroke-width="0.3985" stroke-linecap="butt" stroke-linejoin="miter" stroke="rgb(0%, 0%, 0%)" stroke-opacity="0.75" stroke-miterlimit="10" d="M -0.00184375 21.31275 L 124.388781 -18.363031 L 240.384875 24.179937 L 115.998156 63.855719 Z M -0.00184375 21.31275 " transform="matrix(1, 0, 0, -1, 10.162, 79.344)"/>
<path fill-rule="nonzero" fill="rgb(84.999084%, 84.999084%, 84.999084%)" fill-opacity="0.75" stroke-width="0.3985" stroke-linecap="butt" stroke-linejoin="miter" stroke="rgb(0%, 0%, 0%)" stroke-opacity="0.75" stroke-miterlimit="10" d="M -0.00184375 26.640875 L 124.388781 -13.034906 L 240.384875 29.508062 L 115.998156 69.183844 Z M -0.00184375 26.640875 " transform="matrix(1, 0, 0, -1, 10.162, 79.344)"/>
</svg>
